<svg width="26" height="25" viewBox="0 0 26 25" version="1.1" xmlns="http://www.w3.org/2000/svg" xmlns:xlink="http://www.w3.org/1999/xlink"><title>LinkedIn</title><desc>Created with Sketch.</desc><g id="Dot-Website---Blog" stroke="none" stroke-width="1" fill="none" fill-rule="evenodd"><g id="Dot---Blog-Page" transform="translate(-314.000000, -2144.000000)" fill="currentColor"><g id="Footer-1" transform="translate(0.000000, 1966.000000)"><g id="LinkedIn" transform="translate(314.901632, 178.000000)"><rect id="Rectangle" x=".483" y="8.148" width="5.045" height="16.295"/><path d="M2.98295455,6.01136364 C4.20066526,6.02057154 5.30360186,5.2941276 5.7759937,4.17174169 C6.24838554,3.04935579 5.99687235,1.75284853 5.13907025,0.888510795 C4.28126815,0.0241730573 2.98670723,-0.237173409 1.86076819,0.226685888 C0.734829145,0.690545184 3.48129918e-05,1.78793629 -1.88136182e-16,3.00568182 C-0.00301954924,3.79982611 0.309560119,4.56264321 0.868973846,5.12631913 C1.42838757,5.68999506 2.18881021,6.00835552 2.98295455,6.01136364 Z" id="Path"/><path d="M13.5909091,15.9090909 C13.5909091,13.6363636 14.6477273,12.25 16.6647727,12.25 C18.5227273,12.25 19.4090909,13.5625 19.4090909,15.9090909 L19.4090909,24.4318182 L24.4318182,24.4318182 L24.4318182,14.125 C24.4318182,9.76136364 21.9602273,7.64772727 18.5056818,7.64772727 C16.5078443,7.61885379 14.6416727,8.64147268 13.5909091,10.3409091 L13.5909091,8.14772727 L8.75568182,8.14772727 L8.75568182,24.4318182 L13.5909091,24.4318182 L13.5909091,15.9090909 Z" id="Path"/></g></g></g></g></svg>