<svg width="30" height="25" viewBox="0 0 30 25" version="1.1" xmlns="http://www.w3.org/2000/svg" xmlns:xlink="http://www.w3.org/1999/xlink"><g stroke="none" stroke-width="1" fill="none" fill-rule="evenodd"><g transform="translate(-373.000000, -2144.000000)" fill="currentColor"><g transform="translate(0.000000, 1966.000000)"><g id="Twitter" transform="translate(373.515035, 178.000000)"><path d="M3.34846111e-16,21.75 C2.74927923,23.5178549 5.94933375,24.4569529 9.21794872,24.4551282 C20.3782051,24.4551282 26.6794872,15.025641 26.3012821,6.57051282 C27.4776652,5.72021044 28.4934769,4.66749965 29.3012821,3.46153846 C28.2032561,3.94688337 27.0385513,4.26453015 25.8461538,4.40384615 C27.1047478,3.65475003 28.0462595,2.47159127 28.4935897,1.07692308 C27.305299,1.78201557 26.0041048,2.27646938 24.6474359,2.53846154 C22.7892805,0.537176254 19.8158053,0.039455224 17.407219,1.32654352 C14.9986328,2.61363181 13.7599162,5.3622428 14.3910256,8.01923077 C9.57173031,7.76672771 5.08427278,5.48690367 2.03846154,1.74358974 C0.444908826,4.49188774 1.26156189,8.00546038 3.90384615,9.76923077 C2.94801826,9.74046426 2.01332723,9.48095004 1.17948718,9.01282051 C1.1431783,11.9034692 3.16698289,14.4116951 6,14.9871795 C5.1136059,15.2276171 4.18404496,15.2626948 3.28205128,15.0897436 C4.07028895,17.5374443 6.32640848,19.2140811 8.8974359,19.2628205 C6.37912539,21.2396127 3.17834322,22.1343558 3.34846111e-16,21.75 Z" /></g></g></g></g></svg>