<svg clip-rule="evenodd" fill-rule="evenodd" stroke-linejoin="round" stroke-miterlimit="2" viewBox="0 0 295 295" xmlns="http://www.w3.org/2000/svg" xmlns:xlink="http://www.w3.org/1999/xlink"><clipPath id="a"><path clip-rule="evenodd" d="m0 0h294.166v294.166h-294.166z"/></clipPath><path d="m0 0h294.166v294.166h-294.166z" fill="none"/><g clip-path="url(#a)"><path d="m106.23 26.465c0-14.584-11.84-26.424-26.424-26.424h-52.849c-14.584 0-26.425 11.84-26.425 26.424v241.318c0 14.584 11.841 26.424 26.425 26.424h52.849c14.584 0 26.424-11.84 26.424-26.424z"/><path d="m294.699 26.465c0-14.584-11.841-26.424-26.425-26.424h-52.848c-14.584 0-26.425 11.84-26.425 26.424v241.318c0 14.584 11.841 26.424 26.425 26.424h52.848c14.584 0 26.425-11.84 26.425-26.424z"/></g></svg>