<svg viewBox="0 0 475.51065 237.99023" xmlns="http://www.w3.org/2000/svg" xmlns:xlink="http://www.w3.org/1999/xlink"><linearGradient id="a" gradientUnits="userSpaceOnUse" x1="-.05573" x2="463.009" y1="156.34804" y2="221.58899"><stop offset="0" stop-color="#d4e33e"/><stop offset=".125" stop-color="#bfe049"/><stop offset=".25" stop-color="#7fda71"/><stop offset=".32949266" stop-color="#6cd084"/><stop offset=".5" stop-color="#28d0b0"/><stop offset=".625" stop-color="#1bc5c4"/><stop offset=".70948011" stop-color="#1cb6ca"/><stop offset=".76865882" stop-color="#19a3c7"/><stop offset=".87817872" stop-color="#1e68c7"/><stop offset=".92466426" stop-color="#1f5ec6"/><stop offset="1" stop-color="#2067c5"/></linearGradient><linearGradient id="b" gradientUnits="userSpaceOnUse" x1="267.88156" x2="52.59367" y1="73.862595" y2="116.83102"><stop offset="0" stop-color="#0fbdc7" stop-opacity=".882236"/><stop offset=".24834439" stop-color="#0fbdc7"/><stop offset=".64560306" stop-color="#3fc6a0" stop-opacity="0"/><stop offset="1" stop-color="#d3e241" stop-opacity="0"/></linearGradient><linearGradient id="c" gradientUnits="userSpaceOnUse" x1="162.23886" x2="325.12384" y1="234.93568" y2="189.53333"><stop offset="0" stop-color="#56cd92"/><stop offset=".90214068" stop-color="#1bc3c4"/><stop offset="1" stop-color="#1cbbcf"/></linearGradient><radialGradient id="d" cx="315.7428" cy="127.59316" gradientTransform="matrix(.24034524 .1271931 -.25018668 .47275391 348.86224 -.88874)" gradientUnits="userSpaceOnUse" r="237.755"><stop offset=".05657492" stop-color="#1cb6ca" stop-opacity=".540918"/><stop offset=".85168195" stop-color="#146bed" stop-opacity=".44511"/><stop offset="1" stop-color="#1757bb" stop-opacity=".447059"/></radialGradient><clipPath id="e"><path d="m47.986603 5.974163c-19.776238 0-30.467063 13.504799-30.467063 29.996203 0 17.682397 12.283717 30.187548 30.609635 30.187548 16.837176 0 30.236322-11.093398 30.236322-29.380896 0-16.635476-10.602655-30.802855-30.378894-30.802855zm126.513067 15.530867c-24.36732 0-30.21569 7.846746-30.21569 16.904051v117.024589c0 29.16971-11.88235 43.46167-34.84737 43.46167-22.965024 0-31.21556-15.6066-31.21556-29.02448v-78.691722c0-2.641315-1.795573-4.793015-4.50412-4.793015h-51.318082c-3.140763 0-4.716101 2.025713-4.716101 4.839913v68.299044c0 71.49798 65.350473 75.03365 86.865173 75.03365 43.35597 0 67.27291-23.12839 67.27291-23.12839s22.97508 22.88827 73.38096 22.88827c64.54411 0 87.44108-44.91176 87.44108-44.91176l19.56601 29.67917c6.21429 9.26861 12.41901 15.33765 30.25509 15.33765 22.10058 0 28.7755-8.24062 35.31635-17.94145 0 0 34.0099-52.14385 55.73591-115.3625 1.78648-5.897336.06677-7.147016-3.1028-8.28038l-26.1149-8.068398c-4.14925-1.094943-7.02057-.219255-8.10591 3.372932 0 0-15.42531 52.566366-39.61975 96.556256-38.09255-70.13409-53.04769-91.937703-53.04769-91.937703-3.71705-6.166268-8.87543-9.192082-14.78237-9.192083-8.87481 0-19.82294 4.352247-22.86765 6.350041-14.06139 8.807581-18.2109 14.580295-18.23972 22.561865 0 5.42671 1.86378 8.20138 4.3034 12.77325l3.69747 5.83041c1.39269 2.52605 6.1662 12.03489 6.1662 23.60864 0 26.64366-21.33182 43.8181-51.6445 43.8181-33.24214 0-46.09361-20.37277-46.09361-46.86275v-30.66779s8.42288 3.1497 16.51012 3.1497h31.21556c3.09273 0 4.16832-2.08439 4.16832-4.71609v-27.882031c0-3.150368-1.31601-5.147566-4.7161-5.147566h-47.18727v-46.737048c0-7.779871-2.92131-18.144045-29.55536-18.144045z"/></clipPath><filter id="f" color-interpolation-filters="sRGB" height="1.099612" width="1.214547" x="-.107273" y="-.049806"><feGaussianBlur stdDeviation="2.8798639"/></filter><path d="m31.720703 0c-20.589979 0-31.720703 14.060486-31.720703 31.230469 0 18.409981 12.78916 31.429687 31.869141 31.429687 17.529982 0 31.480468-11.549863 31.480468-30.589844 0-17.319982-11.038926-32.070312-31.628906-32.070312zm131.718747 16.169922c-25.36997 0-31.45898 8.169619-31.45898 17.599609v121.839849c0 30.36996-12.37128 45.25-36.281251 45.25-23.909976 0-32.5-16.24877-32.5-30.21876v-81.929682c0-2.749998-1.869456-4.990235-4.689453-4.990235h-53.4296879c-3.2699967 0-4.91015623 2.109066-4.91015622 5.039063v71.109374c0 74.43993 68.03947512 78.12109 90.43945312 78.12109 45.139955 0 70.041015-24.08007 70.041015-24.08007s23.92044 23.83007 76.40039 23.83007c67.19993 0 91.03906-46.75976 91.03906-46.75976l20.3711 30.90039c6.46999 9.64999 12.93002 15.96875 31.5 15.96875 23.00997 0 29.95954-8.5797 36.76953-18.67969 0 0 35.40932-54.28944 58.0293-120.109373 1.85999-6.139994.06952-7.441095-3.23047-8.621094l-27.18946-8.400391c-4.31999-1.139998-7.30945-.228277-8.43945 3.511719 0 0-16.06002 54.729339-41.25 100.529299-39.65996-73.01993-55.23047-95.720705-55.23047-95.720705-3.86999-6.419994-9.24063-9.570312-15.39062-9.570313-9.23999 0-20.6386 4.531331-23.8086 6.611329-14.63998 9.16999-18.96023 15.180239-18.99023 23.490229 0 5.65 1.94047 8.53884 4.48047 13.29883l3.84961 6.07032c1.45 2.62999 6.41992 12.53009 6.41992 24.58007 0 27.73998-22.20956 45.6211-53.76953 45.6211-34.60997 0-47.99024-21.21105-47.99024-48.79102v-31.92969s8.76946 3.2793 17.18946 3.2793h32.5c3.21999 0 4.33984-2.17016 4.33984-4.91015v-29.029302c0-3.279997-1.37016-5.359375-4.91016-5.359375h-49.1289v-48.660156c0-8.099992-3.04151-18.890625-30.77149-18.890625z" fill="url(#a)"/><path d="m31.720703 0c-20.589979 0-31.720703 14.060486-31.720703 31.230469 0 18.409981 12.78916 31.429687 31.869141 31.429687 17.529982 0 31.480468-11.549863 31.480468-30.589844 0-17.319982-11.038926-32.070312-31.628906-32.070312zm131.718747 16.169922c-25.36997 0-31.45898 8.169619-31.45898 17.599609v121.839849c0 30.36996-12.37128 45.25-36.281251 45.25-23.909976 0-32.5-16.24877-32.5-30.21876v-81.929682c0-2.749998-1.869456-4.990235-4.689453-4.990235h-53.4296879c-3.2699967 0-4.91015623 2.109066-4.91015622 5.039063v71.109374c0 74.43993 68.03947512 78.12109 90.43945312 78.12109 45.139955 0 70.041015-24.08007 70.041015-24.08007s9.26009 9.22511 28.89766 16.19578l16.34835-42.96604c-8.13932-8.79557-11.6757-21.29113-11.6757-35.46998v-31.92969s8.76946 3.2793 17.18946 3.2793h32.5c3.21999 0 4.33984-2.17016 4.33984-4.91015v-29.029302c0-3.279997-1.37016-5.359375-4.91016-5.359375h-49.1289v-48.660156c0-8.099992-3.04151-18.890625-30.77149-18.890625z" fill="url(#b)"/><path d="m160.65039 213.91016s23.92044 23.83007 76.40039 23.83007c67.19993 0 91.03906-46.75976 91.03906-46.75976l-32.10937-36.14063c0 27.73998-22.20956 45.6211-53.76953 45.6211-34.60997 0-47.99024-21.21105-47.99024-48.79102z" fill="url(#c)"/><path clip-path="url(#e)" d="m415.73857 220.54982c13.85982-21.04662 26.92597-45.35891 37.81952-68.97422 7.0492-15.28145 13.75303-31.40928 18.93965-45.46656v-.00142l.00143-.00143c.99584-3.07596 1.83256-5.43503 2.67333-8.496864v-.00142l.00143-.00143c.25994-1.142796.39455-2.120916.31174-2.982225-.08281-.861323-.38612-1.606879-.99361-2.267635h-.00141c-1.01789-1.093163-2.05753-1.644779-3.9858-2.472623l-.00427-.002843-1.38507-.407119-14.54674-4.180818-.00284-.001424c-3.38145-1.148102-6.12344-2.026443-8.22498-2.617814-2.10231-.591591-3.56036-.896812-4.39861-.896812-1.5472 0-3.02075.397599-3.97868 1.29254-.95076.888234-1.7058 2.201956-2.24059 3.978686-5.17195 17.116961-10.55107 31.901211-15.35813 44.297861-2.95873 7.63011-6.02626 15.03774-9.28548 22.413z" fill="url(#d)" filter="url(#f)" transform="matrix(1.0411474 0 0 1.0411474 -18.240424 -6.219984)"/></svg>