<?xml version="1.0" standalone="no"?>
<!DOCTYPE svg PUBLIC "-//W3C//DTD SVG 20010904//EN"
 "http://www.w3.org/TR/2001/REC-SVG-20010904/DTD/svg10.dtd">
<svg version="1.0" xmlns="http://www.w3.org/2000/svg"
 width="312.000000pt" height="312.000000pt" viewBox="0 0 312.000000 312.000000"
 preserveAspectRatio="xMidYMid meet">
<metadata>
Created by potrace 1.11, written by Peter Selinger 2001-2013
</metadata>
<g transform="translate(0.000000,312.000000) scale(0.100000,-0.100000)"
fill="#000000" stroke="none">
<path d="M656 3073 c3 -27 8 -55 11 -63 2 -8 11 -87 18 -175 8 -88 20 -191 28
-230 17 -91 14 -138 -12 -171 -11 -14 -18 -31 -14 -37 3 -5 1 -7 -4 -4 -6 4
-13 -2 -16 -13 -3 -11 -11 -19 -19 -18 -8 2 -14 -8 -16 -25 -2 -15 -11 -31
-21 -37 -10 -5 -24 -23 -30 -39 -8 -18 -23 -32 -39 -36 -21 -5 -23 -8 -11 -16
10 -7 1 -8 -29 -4 l-44 7 17 -26 c10 -14 21 -26 26 -26 14 0 -12 -53 -38 -78
-14 -12 -29 -20 -34 -17 -5 4 -9 -1 -9 -9 0 -9 4 -16 9 -16 5 0 13 -9 16 -20
3 -11 12 -20 20 -20 8 0 16 -19 20 -51 4 -28 13 -62 20 -75 12 -23 9 -75 -4
-71 -19 5 -103 -29 -130 -54 -18 -16 -39 -29 -47 -29 -23 0 -84 -66 -73 -77 7
-7 3 -23 -10 -47 -16 -28 -19 -42 -11 -56 14 -26 12 -40 -4 -40 -19 0 -24 -10
-32 -56 -3 -22 -11 -51 -19 -66 -11 -24 -11 -27 7 -31 22 -6 16 -27 -7 -27 -9
0 -12 -6 -9 -15 4 -8 1 -22 -5 -29 -17 -20 2 -29 45 -22 21 4 34 3 34 -4 0 -5
-8 -10 -19 -10 -10 0 -21 -9 -24 -20 -3 -12 -14 -20 -26 -20 -12 0 -21 -4 -21
-10 0 -5 8 -10 18 -10 14 0 15 -2 2 -9 -8 -6 -14 -24 -13 -45 1 -20 -3 -36 -8
-36 -5 0 -9 -8 -10 -17 0 -10 -6 -2 -13 17 -12 33 -13 30 -8 -38 4 -62 3 -72
-11 -67 -8 4 -18 1 -22 -5 -3 -6 -3 -10 2 -9 4 1 11 0 16 -1 12 -4 26 -7 37
-9 6 0 10 -8 10 -17 0 -9 -6 -14 -13 -11 -14 5 -54 -19 -50 -31 6 -14 -50 -25
-69 -13 -17 11 -18 -5 -18 -439 l0 -450 198 2 c108 1 176 3 150 5 -45 4 -57
11 -42 26 12 12 12 67 0 68 -6 0 5 6 24 14 31 11 33 14 15 21 -27 10 -85 54
-85 64 0 5 24 0 53 -11 58 -20 61 -25 -24 40 -15 11 -29 30 -32 41 -6 24 1 25
27 5 11 -8 27 -15 37 -15 9 0 19 -7 23 -15 3 -8 12 -15 21 -15 12 0 14 4 5 19
-14 28 -13 30 13 23 17 -4 15 0 -13 23 -70 57 -108 98 -104 110 3 7 -2 37 -10
66 -28 94 -23 102 33 48 27 -26 59 -53 72 -60 20 -10 18 -6 -9 29 -34 42 -83
87 -102 94 -6 2 -13 25 -15 51 -3 26 -9 56 -13 65 -21 40 5 183 31 174 10 -3
110 50 122 65 6 7 37 22 70 34 33 11 76 30 95 42 44 28 141 67 150 62 4 -2 5
-18 2 -35 -2 -18 0 -30 7 -30 6 0 11 -4 11 -10 0 -5 -7 -7 -15 -4 -16 6 -21
-11 -6 -20 13 -8 29 15 34 49 2 19 10 31 22 33 25 5 34 -15 29 -60 -6 -51 7
-48 29 7 11 25 25 45 31 45 7 0 21 -20 31 -45 11 -25 22 -40 26 -34 3 6 9 10
13 10 17 -2 17 1 2 24 -31 47 -15 40 49 -21 41 -40 78 -67 102 -73 44 -12 47
-10 47 32 1 31 2 32 51 35 28 2 54 7 58 11 4 4 -8 25 -27 47 -20 21 -36 45
-36 52 0 7 14 21 31 30 18 9 46 31 64 49 18 17 47 38 64 47 37 20 41 35 6 29
-18 -4 -32 3 -55 28 -37 41 -38 61 -3 93 l27 25 -27 10 c-25 10 -38 31 -18 31
5 0 7 15 4 34 -4 28 -1 35 16 41 12 3 19 11 15 16 -3 6 -12 8 -20 5 -22 -8
-16 10 9 27 l22 15 -22 41 c-13 22 -23 48 -23 57 0 9 -9 31 -20 50 -12 18 -23
57 -27 86 -8 73 -25 98 -66 96 -57 -1 -66 2 -96 34 -31 34 -71 128 -71 170 0
31 32 66 68 74 40 9 116 37 122 45 3 4 26 14 52 23 45 15 51 15 95 -3 27 -10
67 -22 90 -26 65 -10 81 -30 112 -135 38 -126 57 -174 69 -178 13 -4 32 53 32
97 0 21 5 42 11 48 8 8 8 20 0 45 -6 18 -20 65 -31 105 -11 40 -25 75 -30 78
-6 3 -10 15 -10 26 0 10 -4 19 -8 19 -7 0 -33 54 -41 85 0 3 -9 1 -20 -4 -17
-9 -18 -7 -11 22 7 34 -12 87 -31 87 -6 0 -25 12 -44 26 -36 27 -57 32 -91 20
-17 -5 -23 -2 -27 15 -3 11 -10 18 -16 14 -6 -3 -11 2 -11 12 0 12 -3 14 -8 6
-5 -7 -13 -9 -21 -3 -8 4 -21 6 -29 3 -8 -3 -18 0 -24 8 -8 11 -9 10 -4 -3 7
-24 -12 -33 -40 -17 -21 11 -27 10 -44 -9 -20 -21 -22 -21 -45 -6 -28 18 -27
12 -60 284 -14 113 -28 217 -31 233 l-6 27 -139 0 -139 0 6 -47z m419 -1310
c-21 -15 -45 -17 -45 -5 0 12 43 31 54 24 5 -3 1 -11 -9 -19z m6 -32 c16 -3
14 -77 -2 -111 -30 -61 -43 -66 -72 -28 -24 32 -28 43 -41 101 -6 23 -3 27 16
27 13 0 29 4 36 9 12 7 36 8 63 2z m-16 -324 c8 -28 13 -53 10 -55 -16 -17
-65 68 -65 114 0 27 0 27 20 9 11 -10 27 -41 35 -68z m155 67 c0 -8 -5 -12
-10 -9 -6 4 -8 11 -5 16 9 14 15 11 15 -7z"/>
<path d="M2272 3103 c-7 -19 -8 -156 -1 -393 3 -117 1 -141 -15 -178 -18 -40
-18 -44 -2 -81 10 -21 33 -53 52 -70 l34 -33 0 -123 c0 -107 4 -135 30 -222
16 -55 34 -121 40 -148 19 -84 77 -187 146 -260 65 -68 99 -124 136 -224 39
-102 124 -171 238 -191 36 -7 85 -16 110 -20 25 -5 53 -9 63 -9 16 -1 17 52
17 984 l0 985 -420 0 c-391 0 -421 -1 -428 -17z m576 -223 c23 -14 43 -41 65
-88 27 -57 32 -79 33 -147 2 -104 2 -105 16 -102 7 1 15 -19 21 -53 11 -63 -9
-145 -43 -175 -35 -32 -43 -8 -47 152 -4 163 -26 261 -84 376 -25 49 -26 57
-11 57 9 0 32 -9 50 -20z"/>
<path d="M1325 1960 c-42 -16 -50 -37 -34 -83 9 -28 21 -43 34 -45 14 -2 16 0
7 6 -9 6 -1 14 28 27 22 10 40 22 40 27 0 4 9 8 19 8 11 0 23 4 26 10 7 12
-38 24 -65 17 -11 -3 -22 -1 -25 4 -3 4 6 11 20 15 14 3 25 10 25 15 0 11 -48
11 -75 -1z"/>
<path d="M1340 1712 c0 -4 24 -24 54 -44 45 -32 53 -41 49 -63 -3 -13 -9 -23
-13 -20 -15 9 -38 -21 -45 -60 -7 -42 -2 -39 31 20 18 32 32 28 40 -10 6 -36
16 -39 20 -7 2 9 5 34 8 54 3 20 3 44 0 52 -10 25 -144 98 -144 78z"/>
<path d="M110 1210 c0 -5 5 -10 10 -10 6 0 10 5 10 10 0 6 -4 10 -10 10 -5 0
-10 -4 -10 -10z"/>
<path d="M110 1184 c0 -14 27 -50 33 -44 3 3 -3 16 -13 30 -11 14 -20 20 -20
14z"/>
<path d="M93 1035 c0 -22 2 -30 4 -17 2 12 2 30 0 40 -3 9 -5 -1 -4 -23z"/>
<path d="M547 956 c-4 -10 -5 -21 -2 -24 9 -9 17 6 13 25 -3 17 -4 17 -11 -1z"/>
<path d="M365 901 c-3 -5 -1 -12 5 -16 5 -3 10 1 10 9 0 18 -6 21 -15 7z"/>
<path d="M245 773 c18 -42 25 -52 25 -34 0 14 -28 71 -35 71 -3 0 2 -17 10
-37z"/>
<path d="M1701 624 c0 -11 3 -14 6 -6 3 7 2 16 -1 19 -3 4 -6 -2 -5 -13z"/>
<path d="M515 410 c-11 -4 -23 -6 -27 -3 -13 7 -9 -25 7 -64 8 -19 15 -54 15
-77 0 -23 6 -50 14 -61 7 -11 20 -62 27 -113 l13 -92 87 0 c48 0 90 4 93 8 3
5 1 26 -5 46 -9 32 -8 41 8 58 18 21 17 21 -4 16 -21 -6 -22 -3 -18 41 2 25 2
38 -1 29 -3 -10 -9 -18 -14 -18 -5 0 -7 -6 -4 -13 3 -8 -2 -14 -10 -14 -11 0
-12 6 -5 24 13 35 11 40 -6 17 -8 -10 -15 -14 -15 -9 0 6 -5 3 -11 -5 -9 -12
-10 -12 -5 3 7 22 -11 60 -25 52 -5 -4 -9 0 -9 8 0 8 -6 20 -14 26 -7 6 -19
38 -25 71 -8 38 -17 60 -26 60 -7 0 -15 4 -17 9 -1 4 -12 5 -23 1z"/>
<path d="M1307 393 c10 -29 85 -166 105 -192 23 -31 23 -41 -2 -41 -22 0 -27
15 -7 23 6 3 -2 4 -20 3 -17 -1 -38 -8 -46 -14 -7 -6 -61 -13 -123 -15 l-109
-3 125 -2 c85 -2 120 -5 110 -12 -8 -5 -47 -10 -87 -10 -40 0 -116 -4 -170
-10 -54 -5 -144 -11 -200 -14 -57 -3 -107 -8 -113 -11 -5 -3 -10 -26 -10 -51
0 -37 3 -44 20 -44 13 0 20 7 20 18 0 10 3 21 6 25 10 10 34 -4 34 -20 0 -8 5
-11 10 -8 6 3 10 1 10 -5 0 -8 19 -10 65 -6 175 16 200 17 185 7 -11 -8 2 -11
50 -11 50 0 61 3 52 12 -19 19 -14 28 14 28 32 0 66 -18 59 -31 -4 -5 60 -9
167 -9 159 1 171 2 146 16 -27 14 -39 56 -20 68 5 3 62 8 128 12 159 10 110
21 -133 30 -101 4 -183 11 -183 16 0 4 66 8 146 8 90 0 143 4 139 10 -8 13 29
48 61 56 22 6 48 1 123 -23 13 -4 14 -3 1 6 -8 5 -12 13 -9 16 12 12 65 -17
98 -53 33 -36 29 -26 -13 40 -42 64 -179 75 -291 24 -32 -14 -59 -26 -60 -26
-2 0 1 17 6 38 21 80 18 94 -6 32 -13 -36 -25 -73 -25 -82 0 -11 -5 -15 -14
-12 -8 3 -17 1 -21 -5 -3 -6 -21 -11 -40 -11 -40 0 -48 11 -124 153 -50 91
-68 119 -54 80z m-157 -298 c0 -10 -15 -15 -57 -17 -39 -2 -57 -7 -56 -15 2
-8 -7 -10 -30 -6 -17 4 -60 7 -95 7 -36 1 -61 5 -59 11 5 14 109 26 195 23 39
-2 72 0 72 4 0 5 7 8 15 8 8 0 15 -7 15 -15z m178 6 c8 -5 -15 -11 -62 -15
-78 -7 -117 1 -80 15 26 10 126 11 142 0z m228 -19 l-1 -29 -30 19 c-16 10
-48 19 -70 19 l-40 2 45 7 c91 14 97 13 96 -18z m-716 -12 c0 -5 -7 -10 -16
-10 -8 0 -12 5 -9 10 3 6 10 10 16 10 5 0 9 -4 9 -10z"/>
<path d="M2115 328 c-3 -24 -9 -58 -12 -77 -4 -23 -2 -32 5 -27 24 14 44 146
23 146 -5 0 -12 -19 -16 -42z"/>
<path d="M907 335 c-4 -8 -3 -14 1 -14 19 3 23 -2 12 -15 -9 -11 -9 -19 0 -33
7 -11 10 -12 7 -3 -2 8 -1 22 3 30 5 9 3 23 -5 33 -11 15 -13 15 -18 2z"/>
<path d="M747 273 c-4 -3 -7 -11 -7 -17 0 -6 5 -5 12 2 6 6 9 14 7 17 -3 3 -9
2 -12 -2z"/>
<path d="M2150 208 c-5 -13 -9 -17 -9 -9 -1 11 -5 9 -15 -5 -10 -13 -13 -35
-9 -72 3 -36 0 -59 -10 -75 -21 -33 -11 -47 34 -47 27 0 39 4 39 14 0 8 -4 17
-9 20 -5 3 -7 49 -6 101 2 52 1 95 -1 95 -3 0 -9 -10 -14 -22z"/>
<path d="M1518 213 c7 -3 16 -2 19 1 4 3 -2 6 -13 5 -11 0 -14 -3 -6 -6z"/>
<path d="M925 200 c-3 -5 -1 -18 4 -27 9 -16 10 -14 11 10 0 28 -5 34 -15 17z"/>
<path d="M791 155 c-1 -17 -3 -17 -11 -5 -8 12 -10 11 -10 -6 0 -17 5 -20 33
-18 17 1 52 3 77 5 29 1 36 3 20 6 -13 3 -30 12 -37 21 -11 16 -12 15 -13 -3
l-1 -20 -9 20 c-6 13 -9 15 -9 5 -1 -13 -2 -13 -11 0 -8 12 -10 12 -11 -5 l0
-20 -9 20 -9 20 0 -20z"/>
<path d="M1018 143 c6 -2 18 -2 25 0 6 3 1 5 -13 5 -14 0 -19 -2 -12 -5z"/>
<path d="M1967 103 c-4 -3 -2 -12 4 -19 6 -8 9 -30 7 -49 -3 -28 -1 -35 11
-33 23 5 25 35 5 66 -10 15 -17 30 -16 35 3 9 -2 9 -11 0z"/>
<path d="M1823 83 c-8 -3 -13 -21 -13 -44 0 -32 3 -39 20 -39 15 0 20 6 19 28
-1 37 -12 60 -26 55z"/>
</g>
</svg>
