<svg height="478" viewBox="0 0 942 478" width="942" xmlns="http://www.w3.org/2000/svg" xmlns:xlink="http://www.w3.org/1999/xlink"><linearGradient id="a" x1="86.471935%" x2="22.452723%" y1="101.139402%" y2="1.899129%"><stop offset="0" stop-color="#1d48b4"/><stop offset=".517386199" stop-color="#00b6ed"/><stop offset="1" stop-color="#56ffd5"/></linearGradient><path d="m664.784849 534.18827-64.616324-33.971177-15.202465 11.800049 15.623328 21.083666-24.4087-14.26452-20.880744 16.20749 6.330924-24.71045-30.053374-17.563286-30.146669 42.213873-43.585079-157.844511 112.171582-13.378567-20.647932 100.218639 17.936151 24.204819 37.928922-148.041679 20.143205 94.662871 60.980941-30.273542-48.172434 70.183093 32.91774 40.824695 14.836783-43.78559-7.525446 52.853137 23.439857 29.070191-25.658298-13.48951-20.403047 143.295829 14.212641 32.844695-40.859637 12.171141-17.785216-36.651152zm-483.319381-4.5303 70.818093-211.358838 37.392151 107.863845 108.08966-110.403239-49.754131 217.901517-32.377362-31.726011-41.007419 26.096595-32.046126-29.672291zm194.160846 7.521871 45.717892-193.827408 46.810962 166.023847zm130.24905 185.029624 37.900976-172.962409 19.154224 89.679372 58.008225-28.684331-45.82722 66.492565 34.584491 51.38918-63.344519-31.343623zm-266.605701-197.651795-33.69614 64.377934 59.726114 45.086259-173.8554456 103.148099 64.5219256-94.990447-42.503146-51.636115zm-5.923473 55.111773 158.975784-2.774933-58.949801 42.042626-26.592241 106.498927-19.447435-105.695301zm137.921807 36.831608 60.987941-46.304505-58.950077 163.053655zm80.65354 105.375385-37.929029-49.451632 22.774137-57.300138 75.660198-13.322481-61.543724 60.583313 45.17482 58.720534zm234.625558-126.421317 46.48575-35.509415-48.901546 175.372865zm22.386629 128.326236 37.573226-137.066729 37.656907 43.141795 12.810109-66.026051 42.020412 162.29136-90.87229-46.875928zm120.632845-124.514408 113.801627 22.701988 88.720714 170.79298-913.019963-56.084779 836.320653 8.304891-79.917666 28.263186z" fill="url(#a)" fill-rule="evenodd" transform="translate(-91 -315)"/></svg>
