<?xml version="1.0" encoding="UTF-8"?>
<svg width="942px" height="478px" viewBox="0 0 942 478" version="1.1" xmlns="http://www.w3.org/2000/svg" xmlns:xlink="http://www.w3.org/1999/xlink">
    <!-- Generator: Sketch 52.6 (67491) - http://www.bohemiancoding.com/sketch -->
    <title>Group</title>
    <desc>Created with Sketch.</desc>
    <g id="Page-1" stroke="none" stroke-width="1" fill="none" fill-rule="evenodd">
        <g id="Custom-Future-style-2" transform="translate(-91.000000, -315.000000)" fill="#FFFFFF">
            <g id="Group" transform="translate(87.000000, 315.000000)">
                <polygon id="Path-2" transform="translate(202.675712, 111.162977) rotate(-1.000000) translate(-202.675712, -111.162977) " points="92.675712 212.753678 167.171739 2.66297742 202.675712 111.162977 312.675712 2.66297742 259.126253 219.662977 227.307517 187.376736 185.850895 212.753678 154.327502 182.526624"></polygon>
                <polygon id="Path-3" transform="translate(333.435075, 124.883002) rotate(-1.000000) translate(-333.435075, -124.883002) " points="286.935075 221.383002 336.028758 28.3830015 379.935075 195.198526"></polygon>
                <polygon id="Path-4" transform="translate(442.119252, 134.487664) rotate(-1.000000) translate(-442.119252, -134.487664) " points="372.119252 60.9065284 412.942927 219.487664 443.821738 177.806352 512.119252 219.3354 462.113395 149.330682 484.507239 49.4876639"></polygon>
                <polygon id="Path-5" transform="translate(539.884646, 132.375398) rotate(-1.000000) translate(-539.884646, -132.375398) " points="466.780822 218.781101 520.109236 24.7811008 538.597278 119.781101 600.097278 90.5764346 550.707317 159.908113 612.98847 239.969696 512.25038 184.742784"></polygon>
                <polygon id="Path-5" transform="translate(475.930564, 323.926428) rotate(-1.000000) translate(-475.930564, -323.926428) " points="417.430564 406.20103 458.344378 233.926428 475.930564 323.926428 534.430564 296.258849 487.449869 361.941492 521.132227 413.926428 458.344378 381.482063"></polygon>
                <polygon id="Path-6" transform="translate(90.412889, 315.653379) rotate(-1.000000) translate(-90.412889, -315.653379) " points="154.111867 210.653379 27.1727263 274.433429 68.768225 326.803462 2.59831417 420.653379 178.227463 320.555185 119.297309 274.433429"></polygon>
                <polygon id="Path-7" transform="translate(227.117061, 336.783788) rotate(-1.000000) translate(-227.117061, -336.783788) " points="147.617061 263.27078 200.895805 304.278187 218.49564 410.296795 246.942494 304.278187 306.617061 263.27078"></polygon>
                <polygon id="Path-8" transform="translate(315.780900, 336.723374) rotate(-1.000000) translate(-315.780900, -336.723374) " points="284.887511 300.95644 346.674288 255.723374 284.887511 417.723374"></polygon>
                <polygon id="Path-9" transform="translate(376.646911, 347.162705) rotate(-1.000000) translate(-376.646911, -347.162705) " points="363.881174 406.662705 326.820972 356.556652 350.591666 299.662705 426.47285 287.662705 363.881174 347.162705 408.024299 406.662705"></polygon>
                <polygon id="Path-10" transform="translate(561.973616, 285.276477) rotate(-1.000000) translate(-561.973616, -285.276477) " points="601.178098 157.418883 522.769134 376.178107 539.911992 413.134071 580.977821 401.677883 567.340563 368.590145"></polygon>
                <polygon id="Path-11" transform="translate(621.582072, 332.632137) rotate(-1.000000) translate(-621.582072, -332.632137) " points="600.461065 280.078502 595.604683 419.878489 647.559461 245.385784"></polygon>
                <polygon id="Path-12" transform="translate(685.581907, 330.768549) rotate(-1.000000) translate(-685.581907, -330.768549) " points="620.581907 407.658659 660.541554 271.268549 697.439798 315.060977 711.40027 249.268549 750.581907 412.268549 660.541554 363.81382"></polygon>
                <polygon id="Path-13" transform="translate(487.488244, 387.234360) rotate(-1.000000) translate(-487.488244, -387.234360) " points="744.324748 288.73436 857.712838 313.419003 943.439288 485.73436 31.5372003 413.723728 867.585537 436.623162 787.186783 463.487287"></polygon>
            </g>
        </g>
    </g>
</svg>