<?xml version="1.0" standalone="no"?>
<!DOCTYPE svg PUBLIC "-//W3C//DTD SVG 20010904//EN"
 "http://www.w3.org/TR/2001/REC-SVG-20010904/DTD/svg10.dtd">
<svg version="1.0" xmlns="http://www.w3.org/2000/svg"
 width="605.000000pt" height="605.000000pt" viewBox="0 0 605.000000 605.000000"
 preserveAspectRatio="xMidYMid meet">
<metadata>
Created by potrace 1.14, written by Peter Selinger 2001-2017
</metadata>
<g transform="translate(0.000000,605.000000) scale(0.100000,-0.100000)"
fill="#000000" stroke="none">
<path d="M0 3025 l0 -3025 3025 0 3025 0 0 3025 0 3025 -3025 0 -3025 0 0
-3025z m3337 2460 c401 -53 769 -192 1098 -416 96 -65 271 -205 308 -247 18
-19 10 -27 -415 -448 -238 -236 -634 -629 -881 -873 -267 -265 -451 -441 -456
-435 -5 5 -148 434 -317 954 -169 520 -310 948 -313 952 -5 6 -442 -1223 -970
-2727 -210 -598 -195 -555 -181 -555 6 0 8 5 5 10 -4 6 7 10 24 10 17 0 31 -5
31 -12 0 -6 7 -3 16 8 8 10 12 13 8 5 -5 -11 -3 -13 9 -8 12 4 17 1 17 -11 1
-16 1 -16 11 0 5 10 17 18 25 18 8 0 13 -4 10 -8 -2 -4 6 -8 20 -8 13 0 24 3
24 7 0 4 18 7 39 6 21 -1 37 -5 34 -9 -2 -5 1 -8 6 -8 6 0 11 5 11 11 0 5 5 7
10 4 6 -4 8 -11 5 -16 -3 -5 1 -6 9 -3 9 3 13 10 10 15 -3 5 9 9 25 9 17 0 31
-5 31 -12 0 -6 7 -3 16 8 8 10 12 13 8 5 -5 -11 -3 -13 9 -8 12 4 17 1 17 -11
1 -16 1 -16 11 1 5 9 17 17 25 17 8 0 13 -4 10 -8 -2 -4 6 -8 20 -8 13 0 24 3
24 7 0 4 18 7 39 6 21 -1 37 -5 34 -9 -2 -5 1 -8 6 -8 6 0 11 5 11 11 0 5 5 7
10 4 6 -4 8 -11 5 -16 -3 -5 1 -6 9 -3 9 3 13 10 10 15 -3 5 9 9 25 9 17 0 31
-5 31 -12 0 -6 7 -3 16 8 8 10 12 13 8 5 -9 -18 22 -8 110 36 80 40 95 39 151
-15 36 -35 41 -37 53 -23 8 10 11 10 6 2 -5 -11 -3 -13 9 -8 12 4 17 1 17 -11
1 -16 1 -16 11 1 5 9 17 17 25 17 8 0 13 -4 10 -8 -2 -4 6 -8 20 -8 13 0 24 3
24 7 0 4 18 7 39 6 21 -1 37 -5 34 -9 -2 -5 1 -8 6 -8 6 0 11 5 11 11 0 5 5 7
10 4 6 -4 8 -11 5 -16 -3 -5 1 -6 9 -3 9 3 13 10 10 15 -3 5 9 9 25 9 17 0 31
-5 31 -12 0 -6 7 -3 16 8 8 10 12 13 8 5 -5 -11 -3 -13 9 -8 12 4 17 1 17 -11
1 -16 1 -16 11 1 5 9 17 17 25 17 8 0 13 -4 10 -8 -2 -4 6 -8 20 -8 13 0 24 3
24 7 0 4 18 7 39 6 21 -1 37 -5 34 -9 -2 -5 1 -8 6 -8 6 0 11 5 11 11 0 5 5 7
10 4 6 -4 8 -11 5 -16 -3 -5 1 -6 9 -3 9 3 13 10 10 15 -3 5 9 9 25 9 17 0 31
-5 31 -12 0 -6 7 -3 16 8 8 10 12 13 8 5 -5 -11 -3 -13 9 -8 12 4 17 1 17 -11
1 -16 1 -16 11 0 5 10 17 18 25 18 8 0 13 -4 10 -8 -2 -4 6 -8 20 -8 13 0 24
3 24 7 0 4 18 7 39 6 21 -1 37 -5 34 -9 -2 -5 1 -8 6 -8 6 0 11 5 11 11 0 5 5
7 10 4 6 -4 8 -11 5 -16 -3 -5 1 -6 9 -3 9 3 13 10 10 15 -3 5 9 9 25 9 17 0
31 -5 31 -12 0 -6 7 -3 16 8 8 10 12 13 8 5 -5 -11 -3 -13 9 -8 12 4 17 1 17
-11 1 -16 1 -16 11 1 5 9 17 17 25 17 8 0 13 -4 10 -8 -2 -4 6 -8 20 -8 13 0
24 4 24 9 0 9 58 3 68 -7 3 -3 11 -1 18 5 8 7 14 7 19 -1 3 -5 11 -10 16 -10
6 0 7 5 4 10 -4 6 7 10 24 10 17 0 31 -5 31 -12 0 -6 7 -3 16 8 8 10 12 13 8
5 -5 -11 -3 -13 9 -8 12 4 17 1 17 -11 1 -16 1 -16 11 1 5 9 17 17 25 17 8 0
13 -4 10 -8 -2 -4 6 -8 20 -8 13 0 24 3 24 7 0 4 18 7 39 6 21 -1 37 -5 34 -9
-2 -5 1 -8 6 -8 6 0 11 5 11 11 0 5 5 7 10 4 6 -4 8 -11 5 -16 -3 -5 1 -6 9
-3 9 3 13 10 10 15 -3 5 9 9 25 9 17 0 31 -5 31 -12 0 -6 7 -3 16 8 8 10 12
13 8 5 -5 -11 -3 -13 9 -8 12 4 17 1 17 -11 1 -16 1 -16 11 0 5 10 17 18 25
18 8 0 13 -4 10 -8 -2 -4 6 -8 20 -8 13 0 24 3 24 7 0 4 18 7 39 6 21 -1 37
-5 34 -9 -2 -5 1 -8 6 -8 6 0 11 5 11 11 0 5 5 7 10 4 6 -4 8 -11 5 -16 -3 -5
1 -6 9 -3 9 3 13 10 10 15 -3 5 5 9 18 9 23 0 33 37 393 1485 203 817 373
1484 376 1483 4 -2 40 -43 79 -91 277 -339 466 -766 536 -1217 26 -161 26
-538 1 -700 -85 -550 -325 -1028 -707 -1410 -382 -382 -860 -622 -1410 -707
-162 -25 -539 -25 -700 1 -532 83 -1005 318 -1381 684 l-97 93 -81 -40 -81
-41 35 96 34 96 -48 61 c-263 339 -438 764 -496 1210 -20 153 -20 446 0 607
100 808 593 1520 1315 1899 260 136 551 228 837 265 151 19 474 20 620 1z"/>
</g>
</svg>
